<?xml version="1.0" encoding="UTF-8" standalone="no"?>
<!-- Created with Inkscape (http://www.inkscape.org/) -->

<svg
   width="124.98514mm"
   height="123.65799mm"
   viewBox="0 0 124.98514 123.65799"
   version="1.1"
   id="svg1"
   inkscape:version="1.4 (86a8ad7, 2024-10-11)"
   sodipodi:docname="dragon.svg"
   xmlns:inkscape="http://www.inkscape.org/namespaces/inkscape"
   xmlns:sodipodi="http://sodipodi.sourceforge.net/DTD/sodipodi-0.dtd"
   xmlns="http://www.w3.org/2000/svg"
   xmlns:svg="http://www.w3.org/2000/svg">
  <sodipodi:namedview
     id="namedview1"
     pagecolor="#ffffff"
     bordercolor="#000000"
     borderopacity="0.25"
     inkscape:showpageshadow="2"
     inkscape:pageopacity="0.0"
     inkscape:pagecheckerboard="0"
     inkscape:deskcolor="#d1d1d1"
     inkscape:document-units="mm"
     showgrid="true"
     inkscape:zoom="0.71891835"
     inkscape:cx="395.7334"
     inkscape:cy="337.3123"
     inkscape:window-width="2560"
     inkscape:window-height="1009"
     inkscape:window-x="1912"
     inkscape:window-y="-8"
     inkscape:window-maximized="1"
     inkscape:current-layer="layer1">
    <inkscape:grid
       id="grid1"
       units="mm"
       originx="0"
       originy="0"
       spacingx="0.99999998"
       spacingy="1"
       empcolor="#0099e5"
       empopacity="0.30196078"
       color="#0099e5"
       opacity="0.14901961"
       empspacing="5"
       enabled="true"
       visible="true" />
    <inkscape:grid
       id="grid2"
       units="mm"
       originx="0"
       originy="0"
       spacingx="0.99999998"
       spacingy="1"
       empcolor="#0099e5"
       empopacity="0.30196078"
       color="#0099e5"
       opacity="0.14901961"
       empspacing="5"
       enabled="true"
       visible="true" />
    <inkscape:grid
       id="grid3"
       units="mm"
       originx="0"
       originy="0"
       spacingx="0.99999998"
       spacingy="1"
       empcolor="#0099e5"
       empopacity="0.30196078"
       color="#0099e5"
       opacity="0.14901961"
       empspacing="5"
       enabled="true"
       visible="true" />
    <inkscape:page
       x="0"
       y="0"
       width="124.98515"
       height="123.65799"
       id="page3"
       margin="0 4.7843871 0 0"
       bleed="0" />
  </sodipodi:namedview>
  <defs
     id="defs1" />
  <g
     inkscape:label="Layer 1"
     inkscape:groupmode="layer"
     id="layer1">
    <path
       fill-rule="nonzero"
       fill="#b61d23"
       fill-opacity="1"
       d="m 29.339022,59.49115 c -0.0341,0.50333 -0.476436,0.881599 -0.978747,0.844394 -0.505381,-0.03721 -0.883655,-0.476457 -0.846455,-0.978752 0.03617,-0.505397 0.47543,-0.883666 0.978747,-0.847495 0.505407,0.03721 0.883681,0.476459 0.846455,0.981853 z m 3.545019,0.354502 c -0.04961,0.698664 -0.655267,1.222663 -1.353925,1.172019 -0.696595,-0.05271 -1.219571,-0.658357 -1.169962,-1.357021 0.05064,-0.6935 0.659395,-1.219565 1.354958,-1.168921 0.698659,0.05271 1.219571,0.658357 1.168929,1.353923 z m 29.003916,-4.95577 c 0,0 -2.28306,2.974493 -5.5852,3.987352 0,0 -2.40813,0.990122 -4.06693,-0.836125 0,0 2.3523,-3.955315 9.65213,-3.151227 z m 50.733853,25.07237 c -2.33061,-2.6324 -4.28088,-5.46323 -5.10873,-8.19898 0,0 0.88056,6.12469 3.37344,12.40337 -5.80533,12.55118 -16.335963,22.462718 -29.324303,27.442258 -2.8815,-0.54777 -5.93143,-1.17513 -9.18292,-1.89653 0,0 -16.75866,-6.27145 -6.88226,-27.114618 0,0 11.17348,-14.835272 9.16223,-22.981544 0,0 5.15421,5.595524 -7.15098,23.999564 0,0 -4.95887,8.33231 -0.0424,17.214458 0,0 5.83324,12.95114 19.15231,6.79648 l -10.39728,-2.84944 c 0,0 7.60159,-1.70325 7.38455,-10.590568 0,0 -9.44335,7.831048 -13.63742,-3.78168 0,0 -1.19785,-7.39179 5.15731,-8.66717 0,0 3.90261,1.33015 3.64837,4.78834 l 0.78859,1.10381 c 0,0 2.30682,-10.09448 -1.13999,-17.6506 0,0 5.32059,3.34656 5.44979,6.31279 0,0 0.75448,-12.641088 -5.64616,-20.242692 0,0 6.09574,-2.508374 8.41706,-0.947745 0,0 -3.26597,-5.283399 -8.79017,-5.860108 0,0 20.1962,-14.523143 17.293,-19.952272 0,0 -9.00618,11.339878 -22.749,16.073438 0,0 0.85473,-6.895703 -2.85978,-10.822078 0,0 1.55858,7.247105 -4.55578,12.364104 0,0 -0.88884,-6.850229 -5.68132,-10.329085 0,0 1.68878,10.210229 -0.36483,12.147061 l 1.86243,0.658357 -1.43352,0.590145 c 0,0 -11.83494,-2.256192 -11.20034,8.051189 0,0 2.9745,2.130102 1.3684,2.709913 0,0 -9.9777,0.833024 -12.911878,-1.817979 0,0 -0.814414,-7.884789 -9.189111,-2.759519 0,0 -4.063842,5.614127 0.184996,6.969082 0,0 -3.918108,5.974829 1.690873,7.779369 0,0 -1.857269,8.73332 5.236871,13.95057 l 0.43098,-5.88388 c 0,0 1.884129,5.18315 4.920639,6.44819 0,0 -0.17674,-4.70773 0.8785,-7.23884 0,0 2.29134,4.34082 3.49022,4.60334 0,0 0.72451,-5.16454 3.1409,-7.24917 l 2.59829,4.88652 3.15124,-7.42177 2.34921,5.91076 c 0,0 2.56624,-4.15892 2.35952,-6.08749 0,0 11.09184,-1.7973 11.57346,-8.371581 0,0 0.6904,7.180951 -8.46976,13.466881 0,0 -8.85526,5.66477 -12.01685,18.341 l -3.25768,-0.45786 c 0.84958,-5.06119 2.12288,-8.56175 2.12288,-8.56175 l -2.05052,1.69085 c -3.06131,9.2997 -3.73414,16.644978 -2.94245,22.444108 C 23.121293,103.54427 9.1831487,84.319612 9.1831487,61.827958 c 0,-29.440063 23.8683013,-53.3083736 53.3083583,-53.3083736 29.22301,0 52.942513,23.5189786 53.291843,52.6603506 -1.36218,1.472779 -4.15374,4.820377 -4.22508,7.574732 0,0 -2.00813,-10.583333 0.52092,-14.224455 0,0 -4.84106,4.339789 -4.41524,8.02535 0,0 -4.73874,-8.87181 -2.88666,-15.1691 0,0 -4.1806,7.170621 -3.34242,14.711246 0,0 -3.256653,-3.018935 -3.264913,-5.283398 0,0 -1.03664,7.0559 1.78387,11.262362 0,0 -0.94154,0.974617 -3.13573,-2.315104 0,0 -1.20613,11.737784 11.424633,17.360184 0,0 -4.31499,-9.60252 -1.27744,-15.465725 0,0 3.01583,8.142135 6.47711,9.885705 -0.25114,0.81752 -0.52917,1.6216 -0.82061,2.42052 z m -67.024333,31.580498 2.62724,0.21187 c 0.0713,0.4837 0.15399,0.98392 0.25217,1.49449 -0.90228,-0.24598 -1.79938,-0.5054 -2.68303,-0.79582 -0.0661,-0.30489 -0.13748,-0.60565 -0.19638,-0.91054 z m 2.81017,-12.715498 c -0.33901,1.955428 -0.54467,4.050398 -0.56327,6.304518 0,0 -0.15608,2.38642 0.26665,5.78673 l -2.69338,-0.37827 c -0.66665,-4.14342 -0.55295,-8.30544 -0.12713,-11.943458 z m 0.14571,-0.78342 -3.13571,-0.44235 c 0.0372,-0.27182 0.0765,-0.54467 0.11885,-0.81132 l 3.22564,0.24081 c -0.0765,0.33073 -0.14055,0.6718 -0.20878,1.01286 z M 115.80197,61.827958 c 0,4.640545 -0.60253,9.141564 -1.71979,13.432774 -0.061,-3.18327 0.11163,-8.731253 1.70945,-13.134084 0.003,-0.100253 0.0103,-0.198437 0.0103,-0.29869 z M 62.491527,2.6904854 c -32.660539,0 -59.1374723,26.4769356 -59.1374723,59.1374726 0,32.662604 26.4769333,59.139542 59.1374723,59.139542 32.6626,0 59.139563,-26.476938 59.139563,-59.139542 0,-32.660537 -26.476963,-59.1374726 -59.139563,-59.1374726 z m 11.06704,36.3192296 c -1.07902,2.87941 1.65156,3.600812 1.65156,3.600812 14.96758,-14.382583 10.16992,-20.125904 10.16992,-20.125904 -1.18441,6.696234 -11.82148,16.525092 -11.82148,16.525092"
       id="path282"
       style="stroke-width:0.264583" />
  </g>
</svg>
