<?xml version="1.0" encoding="UTF-8" standalone="no"?>
<!-- Created with Inkscape (http://www.inkscape.org/) -->

<svg
   width="124.98514mm"
   height="123.65799mm"
   viewBox="0 0 124.98514 123.65799"
   version="1.1"
   id="svg1"
   inkscape:version="1.4 (86a8ad7, 2024-10-11)"
   sodipodi:docname="sheep.svg"
   xmlns:inkscape="http://www.inkscape.org/namespaces/inkscape"
   xmlns:sodipodi="http://sodipodi.sourceforge.net/DTD/sodipodi-0.dtd"
   xmlns="http://www.w3.org/2000/svg"
   xmlns:svg="http://www.w3.org/2000/svg">
  <sodipodi:namedview
     id="namedview1"
     pagecolor="#ffffff"
     bordercolor="#000000"
     borderopacity="0.25"
     inkscape:showpageshadow="2"
     inkscape:pageopacity="0.0"
     inkscape:pagecheckerboard="0"
     inkscape:deskcolor="#d1d1d1"
     inkscape:document-units="mm"
     showgrid="true"
     inkscape:zoom="0.71891835"
     inkscape:cx="395.7334"
     inkscape:cy="337.3123"
     inkscape:window-width="2560"
     inkscape:window-height="1009"
     inkscape:window-x="1912"
     inkscape:window-y="-8"
     inkscape:window-maximized="1"
     inkscape:current-layer="layer1">
    <inkscape:grid
       id="grid1"
       units="mm"
       originx="0"
       originy="0"
       spacingx="0.99999998"
       spacingy="1"
       empcolor="#0099e5"
       empopacity="0.30196078"
       color="#0099e5"
       opacity="0.14901961"
       empspacing="5"
       enabled="true"
       visible="true" />
    <inkscape:grid
       id="grid2"
       units="mm"
       originx="0"
       originy="0"
       spacingx="0.99999998"
       spacingy="1"
       empcolor="#0099e5"
       empopacity="0.30196078"
       color="#0099e5"
       opacity="0.14901961"
       empspacing="5"
       enabled="true"
       visible="true" />
    <inkscape:grid
       id="grid3"
       units="mm"
       originx="0"
       originy="0"
       spacingx="0.99999998"
       spacingy="1"
       empcolor="#0099e5"
       empopacity="0.30196078"
       color="#0099e5"
       opacity="0.14901961"
       empspacing="5"
       enabled="true"
       visible="true" />
    <inkscape:page
       x="0"
       y="0"
       width="124.98515"
       height="123.65799"
       id="page3"
       margin="0 4.7843871 0 0"
       bleed="0" />
  </sodipodi:namedview>
  <defs
     id="defs1" />
  <g
     inkscape:label="Layer 1"
     inkscape:groupmode="layer"
     id="layer1">
    <path
       fill-rule="nonzero"
       fill="#b61d23"
       fill-opacity="1"
       d="m 100.64426,99.041714 c -1.132764,-0.206719 -2.341984,-0.352452 -3.659744,-0.403093 0,0 -19.81996,1.907909 -24.35508,-11.223069 l -1.19272,0.958082 c 0,0 -6.92462,-12.893278 -6.44818,-24.117405 l -2.14868,1.670182 -7.16444,11.223096 c 0,0 1.99472,12.636949 0.80203,18.603515 0,0 -5.46428,9.069198 -4.11965,18.409208 1.62986,0.31522 3.2887,0.55605 4.97126,0.71935 C 30.309516,112.28326 9.1852357,89.527032 9.1852357,61.827433 c 0,-29.440055 23.8652003,-53.3083551 53.3083803,-53.3083551 29.44006,0 53.305264,23.8683001 53.305264,53.3083551 0,14.483874 -5.78363,27.609694 -15.15462,37.214281 z m -2.801914,2.671656 c 0.96221,-0.85471 1.89963,-1.743551 2.798794,-2.666497 -0.902264,0.922946 -1.833464,1.811787 -2.798794,2.666497 z m -40.04199,13.20334 c 0.68522,0.063 1.37253,0.11885 2.06603,0.15296 -0.6935,-0.0341 -1.38081,-0.0899 -2.06603,-0.15296 z M 62.493616,2.6909949 c -32.66263,0 -59.1395603,26.4769331 -59.1395603,59.1364381 0,32.662601 26.4769303,59.139557 59.1395603,59.139557 32.66054,0 59.137474,-26.476956 59.137474,-59.139557 0,-32.659505 -26.476934,-59.1364381 -59.137474,-59.1364381 z M 51.394536,79.808781 c -1.50067,4.746995 -5.89008,5.651315 -5.89008,5.651315 0.99528,1.421103 0.61185,9.559104 0.61185,9.559104 3.24633,-0.19222 4.51033,-7.140628 4.51033,-7.140628 0.85267,1.139984 1.2547,6.172227 1.2547,6.172227 3.69589,-1.848988 0.9684,-12.40028 0.9684,-12.40028 z m 0.59221,-19.82515 c -0.74311,1.470713 -2.26756,2.198317 -3.40238,1.624701 -1.1348,-0.574649 -1.45002,-2.230358 -0.70588,-3.704167 0.74311,-1.471745 2.26446,-2.196253 3.39926,-1.6247 1.13482,0.576712 1.45314,2.233453 0.709,3.704166 z m -6.32621,19.121305 -1.38906,2.460837 c -0.42066,0.743109 -1.31982,0.920882 -1.94718,0.568431 l 0.003,0.0032 c -0.62529,-0.352425 -1.41904,-0.584968 -1.00045,-1.331172 0,0 0.11367,-0.373115 0.76997,-0.190182 0.24289,0.06614 0.36793,0.124036 0.36793,0.124036 l 1.54514,-2.640674 c 0.42063,-0.743108 0.65318,-1.333235 1.27743,-0.981842 0.62426,0.354489 0.79375,1.244362 0.37312,1.987471 z m 14.90451,-58.226933 c -15.04715,8.937943 -12.21838,23.759795 -12.21838,23.759795 -6.56188,-0.68318 -9.61491,3.619421 -9.61491,3.619421 -4.75218,6.331373 -3.84783,23.190305 -3.84783,23.190305 0.33898,5.88182 5.54384,11.200342 5.54384,11.200342 0.90434,1.018037 5.99757,0.227383 5.99757,0.227383 2.03502,-1.246426 4.63847,-7.355628 4.63847,-7.355628 2.37609,-1.015948 12.21838,-14.480752 12.21838,-14.480752 l 0.90434,1.019043 c 0.22532,-1.923389 -2.26137,-7.579889 -2.26137,-7.579889 6.44716,1.470713 9.27593,-4.072097 9.27593,-4.072097 -5.99549,-5.091165 -15.04715,-5.318548 -15.04715,-5.318548 -0.33795,-4.072096 4.41111,-24.209375 4.41111,-24.209375 z m -15.68172,20.986829 c -1.95856,-5.003323 1.8438,-23.303996 1.8438,-23.303996 -13.01007,8.960696 -9.3059,27.762649 -9.3059,27.762649 0.84129,-1.741514 7.4621,-4.458653 7.4621,-4.458653"
       id="path291"
       style="stroke-width:0.264583" />
  </g>
</svg>
