<?xml version="1.0" encoding="UTF-8" standalone="no"?>
<!-- Created with Inkscape (http://www.inkscape.org/) -->

<svg
   width="124.98514mm"
   height="123.65799mm"
   viewBox="0 0 124.98514 123.65799"
   version="1.1"
   id="svg1"
   inkscape:version="1.4 (86a8ad7, 2024-10-11)"
   sodipodi:docname="horse.svg"
   xmlns:inkscape="http://www.inkscape.org/namespaces/inkscape"
   xmlns:sodipodi="http://sodipodi.sourceforge.net/DTD/sodipodi-0.dtd"
   xmlns="http://www.w3.org/2000/svg"
   xmlns:svg="http://www.w3.org/2000/svg">
  <sodipodi:namedview
     id="namedview1"
     pagecolor="#ffffff"
     bordercolor="#000000"
     borderopacity="0.25"
     inkscape:showpageshadow="2"
     inkscape:pageopacity="0.0"
     inkscape:pagecheckerboard="0"
     inkscape:deskcolor="#d1d1d1"
     inkscape:document-units="mm"
     showgrid="true"
     inkscape:zoom="0.71891835"
     inkscape:cx="395.7334"
     inkscape:cy="337.3123"
     inkscape:window-width="1920"
     inkscape:window-height="1009"
     inkscape:window-x="-8"
     inkscape:window-y="-8"
     inkscape:window-maximized="1"
     inkscape:current-layer="layer1">
    <inkscape:grid
       id="grid1"
       units="mm"
       originx="0"
       originy="0"
       spacingx="0.99999998"
       spacingy="1"
       empcolor="#0099e5"
       empopacity="0.30196078"
       color="#0099e5"
       opacity="0.14901961"
       empspacing="5"
       enabled="true"
       visible="true" />
    <inkscape:grid
       id="grid2"
       units="mm"
       originx="0"
       originy="0"
       spacingx="0.99999998"
       spacingy="1"
       empcolor="#0099e5"
       empopacity="0.30196078"
       color="#0099e5"
       opacity="0.14901961"
       empspacing="5"
       enabled="true"
       visible="true" />
    <inkscape:grid
       id="grid3"
       units="mm"
       originx="0"
       originy="0"
       spacingx="0.99999998"
       spacingy="1"
       empcolor="#0099e5"
       empopacity="0.30196078"
       color="#0099e5"
       opacity="0.14901961"
       empspacing="5"
       enabled="true"
       visible="true" />
    <inkscape:page
       x="0"
       y="0"
       width="124.98515"
       height="123.65799"
       id="page3"
       margin="0 4.7843871 0 0"
       bleed="0" />
  </sodipodi:namedview>
  <defs
     id="defs1" />
  <g
     inkscape:label="Layer 1"
     inkscape:groupmode="layer"
     id="layer1">
    <path
       fill-rule="nonzero"
       fill="#b61d23"
       fill-opacity="1"
       d="m 44.914336,75.592493 c -0.029,1.45728 -1.08419,2.6169 -2.35956,2.59003 -1.27537,-0.0269 -2.28306,-1.22784 -2.25412,-2.68304 0.0289,-1.45728 1.08726,-2.6169 2.36263,-2.59313 1.27227,0.0269 2.28306,1.22784 2.25105,2.68614 z m 13.69009,-23.82076 c -1.03248,1.38389 -2.37606,2.127 -3.00342,1.65881 -0.62735,-0.46509 -0.29868,-1.96577 0.73277,-3.34967 1.02939,-1.38596 2.37402,-2.127 3.00344,-1.66088 0.62423,0.46819 0.29869,1.96784 -0.73279,3.35174 z m 43.687264,36.6975 1.97922,-1.18546 c -8.968964,-1.18752 -17.279574,4.22092 -17.279574,4.22092 l -1.05524,-0.26249 -1.58231,-1.05525 c 2.76984,7.78143 -2.97656,13.477217 -2.97656,13.477217 -4.72014,-1.49138 -9.39065,-16.472377 -9.39065,-16.472377 -2.50529,1.58956 -1.48106,8.00571 -1.48106,8.00571 -4.62505,-4.15375 -5.19657,-9.54567 -4.50617,-16.27188 0.1478,-1.43867 0.26458,-3.42098 0.77203,-4.63537 4.12586,-9.85573 4.13827,-13.46171 4.13827,-13.46171 1.18544,-23.476606 -13.72632,-23.534484 -13.72632,-23.534484 -0.63767,-2.370912 -2.59829,-4.109309 -3.74859,-4.958868 -0.51366,-0.378272 -0.86818,-0.578776 -0.86818,-0.578776 -3.05924,-0.640789 -5.61411,-0.444418 -7.72356,0.181901 -5.70714,1.693952 -8.10389,6.54327 -8.10389,6.54327 1.71463,-0.264583 3.42926,-0.393777 3.42926,-0.393777 -5.80535,1.714625 -7.25538,8.834604 -7.25538,8.834604 6.4637,-7.252271 15.43368,-6.461622 15.43368,-6.461622 -15.16909,1.188559 -11.34298,22.818242 -11.34298,22.818242 0.52607,1.05524 -0.26458,2.1084 -0.26458,2.1084 -5.40846,3.16673 -4.48448,7.25434 -4.48448,7.25434 -2.10944,9.49916 7.51893,12.13673 7.51893,12.13673 12.00131,0.26251 11.0784,-13.98261 11.0784,-13.98261 5.40845,-0.78858 13.45445,-5.80327 13.45445,-5.80327 -1.97918,5.01469 -10.15751,6.59392 -10.15751,6.59392 -4.21989,10.94817 -3.69072,34.427867 -3.69072,34.427867 0.87021,3.267 1.95749,6.0265 3.16878,8.36023 C 28.409886,110.15265 9.1852357,88.247023 9.1852357,61.828993 c 0,-29.44006 23.8652003,-53.3083706 53.3083803,-53.3083706 29.44006,0 53.305264,23.8683106 53.305264,53.3083706 0,10.11205 -2.81532,19.56573 -7.70186,27.62002 -3.13468,-1.10897 -5.80533,-0.97978 -5.80533,-0.97978 z M 62.493616,2.6894544 c -32.66263,0 -59.1395603,26.4790046 -59.1395603,59.1395386 0,32.65951 26.4769303,59.139537 59.1395603,59.139537 32.66054,0 59.137474,-26.480027 59.137474,-59.139537 0,-32.660534 -26.476934,-59.1395386 -59.137474,-59.1395386 z m 6.09058,24.8439616 c 0,0 0.58187,-8.532812 -1.97094,-8.763288 0,0 -3.07681,-0.812355 -10.44588,14.914851 l 1.45005,2.262394 3.07475,0.171566 c 0,0 0.75652,-0.113689 0.34933,-0.812353 0,0 -0.57981,-3.711403 3.01789,-6.78615 0,0 2.14664,-2.498039 1.62473,1.042829 0,0 0.17465,3.772382 -2.66962,6.499863 0,0 -1.10279,0.868164 0.11678,0.754475 0,0 4.2354,-1.799373 5.68545,-5.802228 0,0 1.16168,-3.076815 -0.23254,-3.481959 z m 7.0621,48.394977 c 0,-9.46402 -3.12023,-14.04462 -3.12023,-14.04462 l -0.092,-0.27492 c 0.45992,9.45369 -3.36828,10.20506 -3.44787,16.15302 -0.063,4.61987 0.23564,8.35298 0.23564,8.35298 0.093,-2.93729 4.68088,-7.15925 4.68088,-7.15925 -1.46865,10.00352 6.51639,21.02094 6.51639,21.02094 7.34529,-9.17567 -2.84427,-19.91507 -2.84427,-19.91507 -2.38643,-2.2965 -1.92857,-3.76514 -1.92857,-4.13308 z M 49.261326,28.345769 c 0,0 -1.50791,-5.630664 -5.8022,-9.691396 0,0 -1.10279,-1.217499 -1.45005,2.899047 0,0 -0.45993,5.279263 -0.0713,8.194847 0.12711,0.965317 0.34933,1.672251 0.70898,1.843815 0,0 0.33901,-0.16433 0.87643,-0.396875 1.60819,-0.698664 5.00333,-2.008145 6.60943,-1.399397 0,0 -0.29147,-1.219562 -0.87128,-1.450041"
       id="path285"
       style="stroke-width:0.264583" />
  </g>
</svg>
