<?xml version="1.0" encoding="UTF-8" standalone="no"?>
<!-- Created with Inkscape (http://www.inkscape.org/) -->

<svg
   width="124.98514mm"
   height="123.65799mm"
   viewBox="0 0 124.98514 123.65799"
   version="1.1"
   id="svg1"
   inkscape:version="1.4 (86a8ad7, 2024-10-11)"
   sodipodi:docname="horse.svg"
   xmlns:inkscape="http://www.inkscape.org/namespaces/inkscape"
   xmlns:sodipodi="http://sodipodi.sourceforge.net/DTD/sodipodi-0.dtd"
   xmlns="http://www.w3.org/2000/svg"
   xmlns:svg="http://www.w3.org/2000/svg">
  <sodipodi:namedview
     id="namedview1"
     pagecolor="#ffffff"
     bordercolor="#000000"
     borderopacity="0.25"
     inkscape:showpageshadow="2"
     inkscape:pageopacity="0.0"
     inkscape:pagecheckerboard="0"
     inkscape:deskcolor="#d1d1d1"
     inkscape:document-units="mm"
     showgrid="true"
     inkscape:zoom="0.71891835"
     inkscape:cx="395.7334"
     inkscape:cy="337.3123"
     inkscape:window-width="2560"
     inkscape:window-height="1009"
     inkscape:window-x="1912"
     inkscape:window-y="-8"
     inkscape:window-maximized="1"
     inkscape:current-layer="layer1">
    <inkscape:grid
       id="grid1"
       units="mm"
       originx="0"
       originy="0"
       spacingx="0.99999998"
       spacingy="1"
       empcolor="#0099e5"
       empopacity="0.30196078"
       color="#0099e5"
       opacity="0.14901961"
       empspacing="5"
       enabled="true"
       visible="true" />
    <inkscape:grid
       id="grid2"
       units="mm"
       originx="0"
       originy="0"
       spacingx="0.99999998"
       spacingy="1"
       empcolor="#0099e5"
       empopacity="0.30196078"
       color="#0099e5"
       opacity="0.14901961"
       empspacing="5"
       enabled="true"
       visible="true" />
    <inkscape:grid
       id="grid3"
       units="mm"
       originx="0"
       originy="0"
       spacingx="0.99999998"
       spacingy="1"
       empcolor="#0099e5"
       empopacity="0.30196078"
       color="#0099e5"
       opacity="0.14901961"
       empspacing="5"
       enabled="true"
       visible="true" />
    <inkscape:page
       x="0"
       y="0"
       width="124.98515"
       height="123.65799"
       id="page3"
       margin="0 4.7843871 0 0"
       bleed="0" />
  </sodipodi:namedview>
  <defs
     id="defs1" />
  <g
     inkscape:label="Layer 1"
     inkscape:groupmode="layer"
     id="layer1">
    <path
       fill-rule="nonzero"
       fill="#b61d23"
       fill-opacity="1"
       d="m 110.02041,85.960342 c -0.36483,0.714163 -0.74827,1.415917 -1.14308,2.111481 0.39481,-0.695564 0.77825,-1.397318 1.14308,-2.111481 z m -1.42523,2.600351 c -0.40825,0.70694 -0.82889,1.405599 -1.26815,2.087721 0.43926,-0.682122 0.8599,-1.380781 1.26815,-2.087721 z m -5.56453,7.866191 c 1.06868,-1.25367 2.07637,-2.55799 3.02617,-3.90779 -0.9498,1.3498 -1.95749,2.65412 -3.02617,3.90779 z m -3.593567,3.807516 c 1.236097,-1.187526 2.413287,-2.433956 3.529487,-3.736206 -1.1162,1.30225 -2.29339,2.54868 -3.529487,3.736206 z m -3.90983,3.41373 c 1.24539,-0.98494 2.4474,-2.02467 3.5977,-3.11505 -1.1503,1.09038 -2.35231,2.13011 -3.5977,3.11505 z M 27.682294,54.291993 c -1.060398,0.905351 -3.07475,0.918792 -4.35737,-0.587058 -1.283626,-1.505849 -0.923978,-3.529489 0.137477,-4.434866 1.061429,-0.907442 1.709447,-0.0071 2.992067,1.495504 1.283626,1.504818 2.289254,2.618978 1.227826,3.52642 z m 30.106672,-4.939242 c -1.523418,0.497126 -3.029267,0.07337 -3.365156,-0.949828 -0.332793,-1.021106 0.629417,-2.254117 2.153867,-2.754339 1.526514,-0.497125 3.03239,-0.07443 3.365183,0.946706 0.335888,1.024229 -0.626322,2.260335 -2.153894,2.757461 z m 20.286107,5.437399 -1.558555,1.335299 0.666618,-4.677727 -2.005039,2.450491 -0.666618,-3.341396 -1.558581,0.222197 c 0,0 9.799925,-3.120231 12.919125,-21.83122 0,0 -13.583679,5.347467 -16.928171,10.469641 0,0 -6.682793,-4.230237 -10.914062,-5.122174 0,0 -9.579769,-1.783874 -14.033262,5.122174 0,0 -8.466666,6.685889 -21.163544,7.130309 0,0 -3.120231,2.002976 -2.228295,3.564652 0,0 -0.960146,0.639736 -1.296061,2.925921 -0.220133,1.481032 -0.174651,3.656621 0.558112,6.794421 0.02381,0.100251 0.04445,0.198437 0.06821,0.303847 0,0 1.339453,5.567627 6.017207,4.675691 0,0 12.472617,-0.891937 21.161507,1.782841 0,0 6.460595,2.002976 14.258554,-2.674778 l 0.888841,0.225292 c 0,0 6.902926,-5.566568 8.463571,-7.128245 0,0 -1.336357,8.686826 -17.152461,13.142357 l 4.677754,14.925198 c 0,0 -1.728047,18.748189 4.267438,30.050869 -0.0082,0 -0.01561,0 -0.02593,0 -29.441113,0 -53.3083818,-23.865206 -53.3083818,-53.308378 0,-29.440055 23.8672688,-53.3083551 53.3083818,-53.3083551 29.442122,0 53.307319,23.8683001 53.307319,53.3083551 0,8.68164 -2.08462,16.865123 -5.765,24.106028 -6.86885,0.228415 -14.723667,-0.193278 -19.706297,-2.629297 0,0 -13.811042,-8.244469 -12.25249,-28.514013 z M 62.491538,2.6909939 c -32.660537,0 -59.1374698,26.4769331 -59.1374698,59.1364381 0,32.662602 26.4769328,59.139558 59.1374698,59.139558 32.662605,0 59.139532,-26.476956 59.139532,-59.139558 0,-32.659505 -26.476927,-59.1364381 -59.139532,-59.1364381 z M 61.472469,33.379564 c 5.135615,0.476462 7.939563,2.865967 7.939563,2.865967 3.164682,-4.239525 -0.536389,-15.881191 -0.536389,-15.881191 0.11885,2.749179 -7.403174,13.015224 -7.403174,13.015224"
       id="path287"
       style="stroke-width:0.264583" />
  </g>
</svg>
