<?xml version="1.0" encoding="UTF-8" standalone="no"?>
<!-- Created with Inkscape (http://www.inkscape.org/) -->

<svg
   width="124.98514mm"
   height="123.65799mm"
   viewBox="0 0 124.98514 123.65799"
   version="1.1"
   id="svg1"
   inkscape:version="1.4 (86a8ad7, 2024-10-11)"
   sodipodi:docname="monkey.svg"
   xmlns:inkscape="http://www.inkscape.org/namespaces/inkscape"
   xmlns:sodipodi="http://sodipodi.sourceforge.net/DTD/sodipodi-0.dtd"
   xmlns="http://www.w3.org/2000/svg"
   xmlns:svg="http://www.w3.org/2000/svg">
  <sodipodi:namedview
     id="namedview1"
     pagecolor="#ffffff"
     bordercolor="#000000"
     borderopacity="0.25"
     inkscape:showpageshadow="2"
     inkscape:pageopacity="0.0"
     inkscape:pagecheckerboard="0"
     inkscape:deskcolor="#d1d1d1"
     inkscape:document-units="mm"
     showgrid="true"
     inkscape:zoom="0.71891835"
     inkscape:cx="395.7334"
     inkscape:cy="337.3123"
     inkscape:window-width="2560"
     inkscape:window-height="1009"
     inkscape:window-x="1912"
     inkscape:window-y="-8"
     inkscape:window-maximized="1"
     inkscape:current-layer="layer1">
    <inkscape:grid
       id="grid1"
       units="mm"
       originx="0"
       originy="0"
       spacingx="0.99999998"
       spacingy="1"
       empcolor="#0099e5"
       empopacity="0.30196078"
       color="#0099e5"
       opacity="0.14901961"
       empspacing="5"
       enabled="true"
       visible="true" />
    <inkscape:grid
       id="grid2"
       units="mm"
       originx="0"
       originy="0"
       spacingx="0.99999998"
       spacingy="1"
       empcolor="#0099e5"
       empopacity="0.30196078"
       color="#0099e5"
       opacity="0.14901961"
       empspacing="5"
       enabled="true"
       visible="true" />
    <inkscape:grid
       id="grid3"
       units="mm"
       originx="0"
       originy="0"
       spacingx="0.99999998"
       spacingy="1"
       empcolor="#0099e5"
       empopacity="0.30196078"
       color="#0099e5"
       opacity="0.14901961"
       empspacing="5"
       enabled="true"
       visible="true" />
    <inkscape:page
       x="0"
       y="0"
       width="124.98515"
       height="123.65799"
       id="page3"
       margin="0 4.7843871 0 0"
       bleed="0" />
  </sodipodi:namedview>
  <defs
     id="defs1" />
  <g
     inkscape:label="Layer 1"
     inkscape:groupmode="layer"
     id="layer1">
    <path
       fill-rule="nonzero"
       fill="#b61d23"
       fill-opacity="1"
       d="m 111.15315,83.571336 c 0.33072,-0.737938 0.65113,-1.484145 0.94982,-2.243791 -0.29662,0.759646 -0.6191,1.505853 -0.94982,2.243791 z m -2.51664,4.934067 c -0.42064,0.727604 -0.8599,1.439704 -1.31154,2.143538 0.45164,-0.703834 0.8909,-1.415934 1.31154,-2.143538 z m 1.15136,-2.108399 c -0.35452,0.680062 -0.71935,1.354955 -1.10072,2.016414 0.38137,-0.661459 0.7462,-1.336352 1.10072,-2.016414 z m 1.0976,-2.246892 c -0.25837,0.566376 -0.53123,1.127581 -0.81132,1.685685 0.28009,-0.558104 0.55295,-1.119309 0.81132,-1.685685 z m -6.88949,11.115601 c -6.248715,0.09302 -12.922215,1.516187 -14.625475,6.841957 0,0 -0.36277,2.44533 0.47337,5.45807 -4.96403,2.97449 -10.44588,5.15937 -16.28222,6.39237 6.16913,-5.31234 13.20541,-13.88752 14.95621,-26.212352 0,0 5.40326,2.704745 6.68382,4.551661 0,0 4.944395,-3.812688 12.062295,-1.558562 -1.01388,1.565796 -2.10116,3.079916 -3.268,4.526856 z M 40.001957,59.017797 c 0,0 -2.805007,3.244247 -5.522145,3.941879 0,0 -1.667087,-1.050065 -0.26252,-1.663983 0,0 2.630329,-1.489313 3.415824,-2.452563 z m 4.203356,-7.186126 c 0,0.920875 -0.743109,1.663984 -1.663991,1.663984 -0.91776,0 -1.663965,-0.743109 -1.663965,-1.663984 0,-0.917773 0.746205,-1.66398 1.663965,-1.66398 0.920882,0 1.663991,0.746207 1.663991,1.66398 z m 18.052652,-2.717146 c -5.87044,-4.905126 -8.14938,2.280999 -8.14938,2.280999 -0.619096,-5.411557 0.22014,-7.889959 1.84174,-8.678542 8.5566,-4.146515 9.63869,5.259628 9.63869,5.259628 1.75183,8.763289 -6.65903,9.813354 -6.65903,9.813354 5.25653,-4.029726 3.32798,-8.675439 3.32798,-8.675439 z m -4.78835,65.777895 c -7.672916,-0.71727 -14.870402,-3.06338 -21.249348,-6.68589 0.683154,-1.06144 1.285717,-1.66709 1.285717,-1.66709 1.595755,-0.29042 1.232984,-1.59577 1.232984,-1.59577 l -0.290406,-4.35218 c -0.579808,-2.537317 -3.770313,-2.466004 -3.770313,-2.466004 l -8.627903,2.031914 c -0.174652,0.0217 -0.335889,0.0506 -0.500222,0.0775 C 15.463917,90.540424 9.1831576,76.922651 9.1831576,61.827965 c 0,-29.440063 23.8672694,-53.3083733 53.3083774,-53.3083733 20.19824,0 37.757895,11.2416933 46.801275,27.8019213 -3.00033,5.752621 -5.02915,14.599626 0.55292,25.691454 0,0 2.26759,4.529958 5.22346,8.548317 -0.23564,1.418 -0.52398,2.815331 -0.86815,4.190958 C 106.45163,65.960014 94.764485,57.530555 77.283385,53.622781 l -4.68807,-4.407998 c 0,0 -2.41845,-29.146542 -29.009074,-16.207795 0,0 -11.231377,7.391797 -8.387107,21.896337 0,0 -5.973788,1.278474 -3.129518,8.530746 0,0 -7.535465,11.373982 3.981159,13.789337 l 12.51294,-9.664525 -9.668669,11.940357 c 0,0 16.494069,5.405353 18.627279,-9.099187 0,0 7.10655,1.563729 11.7998,-6.823356 0,0 5.4219,1.957504 8.24757,8.103897 4.01111,8.720915 3.40754,24.458456 -20.10008,43.211836 z m -23.240946,-7.88169 c 0.174652,0.10852 0.343112,0.22221 0.520885,0.32763 -0.177773,-0.10542 -0.346233,-0.21911 -0.520885,-0.32763 z m -1.551331,-1.01079 c 0.211878,0.14263 0.420634,0.28836 0.632513,0.42892 -0.211879,-0.14056 -0.420635,-0.28629 -0.632513,-0.42892 z m -1.460368,-1.02423 c 0.230452,0.1664 0.457835,0.3359 0.690377,0.50023 -0.232542,-0.16433 -0.459925,-0.33383 -0.690377,-0.50023 z m -1.409753,-1.05833 c 0.242888,0.1881 0.486807,0.38137 0.73279,0.56637 -0.245983,-0.185 -0.489902,-0.37827 -0.73279,-0.56637 z m -1.363213,-1.09554 c 0.254239,0.20981 0.505381,0.42065 0.762741,0.63045 -0.25736,-0.2098 -0.508502,-0.42064 -0.762741,-0.63045 z m -1.32498,-1.13688 c 0.261488,0.23254 0.526071,0.46509 0.79375,0.69556 -0.267679,-0.23047 -0.532262,-0.46302 -0.79375,-0.69556 z m -1.278493,-1.17512 c 0.270801,0.25631 0.542607,0.51366 0.817536,0.76171 -0.274929,-0.24805 -0.546735,-0.5054 -0.817536,-0.76171 z M 114.92036,52.260588 c -0.28834,-0.987021 -0.51056,-2.013316 -0.63973,-3.050977 0.24286,1.005623 0.45474,2.023647 0.63973,3.050977 z m 0.37931,2.346108 c -0.0982,-0.716235 -0.21188,-1.425234 -0.33692,-2.132169 0.12504,0.706935 0.2408,1.415934 0.33692,2.132169 z M 62.491535,2.6904877 c -32.660532,0 -59.1374654,26.4769363 -59.1374654,59.1374723 0,32.662606 26.4769334,59.13954 59.1374654,59.13954 32.66261,0 59.139535,-26.476934 59.139535,-59.13954 0,-32.660536 -26.476925,-59.1374723 -59.139535,-59.1374723 z M 73.730115,74.099047 C 58.373965,100.68657 40.31615,97.697607 40.31615,97.697607 l 0.569462,7.111713 c 2.274808,2.70164 6.682793,2.56108 6.682793,2.56108 31.28182,-7.96437 26.16171,-33.271353 26.16171,-33.271353"
       id="path280"
       style="stroke-width:0.264583" />
  </g>
</svg>
