<?xml version="1.0" encoding="UTF-8" standalone="no"?>
<!-- Created with Inkscape (http://www.inkscape.org/) -->

<svg
   width="124.98514mm"
   height="123.65799mm"
   viewBox="0 0 124.98514 123.65799"
   version="1.1"
   id="svg1"
   inkscape:version="1.4 (86a8ad7, 2024-10-11)"
   sodipodi:docname="ox.svg"
   xmlns:inkscape="http://www.inkscape.org/namespaces/inkscape"
   xmlns:sodipodi="http://sodipodi.sourceforge.net/DTD/sodipodi-0.dtd"
   xmlns="http://www.w3.org/2000/svg"
   xmlns:svg="http://www.w3.org/2000/svg">
  <sodipodi:namedview
     id="namedview1"
     pagecolor="#ffffff"
     bordercolor="#000000"
     borderopacity="0.25"
     inkscape:showpageshadow="2"
     inkscape:pageopacity="0.0"
     inkscape:pagecheckerboard="0"
     inkscape:deskcolor="#d1d1d1"
     inkscape:document-units="mm"
     showgrid="true"
     inkscape:zoom="0.71891835"
     inkscape:cx="395.7334"
     inkscape:cy="337.3123"
     inkscape:window-width="2560"
     inkscape:window-height="1009"
     inkscape:window-x="1912"
     inkscape:window-y="-8"
     inkscape:window-maximized="1"
     inkscape:current-layer="layer1">
    <inkscape:grid
       id="grid1"
       units="mm"
       originx="0"
       originy="0"
       spacingx="0.99999998"
       spacingy="1"
       empcolor="#0099e5"
       empopacity="0.30196078"
       color="#0099e5"
       opacity="0.14901961"
       empspacing="5"
       enabled="true"
       visible="true" />
    <inkscape:grid
       id="grid2"
       units="mm"
       originx="0"
       originy="0"
       spacingx="0.99999998"
       spacingy="1"
       empcolor="#0099e5"
       empopacity="0.30196078"
       color="#0099e5"
       opacity="0.14901961"
       empspacing="5"
       enabled="true"
       visible="true" />
    <inkscape:grid
       id="grid3"
       units="mm"
       originx="0"
       originy="0"
       spacingx="0.99999998"
       spacingy="1"
       empcolor="#0099e5"
       empopacity="0.30196078"
       color="#0099e5"
       opacity="0.14901961"
       empspacing="5"
       enabled="true"
       visible="true" />
    <inkscape:page
       x="0"
       y="0"
       width="124.98515"
       height="123.65799"
       id="page3"
       margin="0 4.7843871 0 0"
       bleed="0" />
  </sodipodi:namedview>
  <defs
     id="defs1" />
  <g
     inkscape:label="Layer 1"
     inkscape:groupmode="layer"
     id="layer1">
    <path
       fill-rule="nonzero"
       fill="#b61d23"
       fill-opacity="1"
       d="m 102.54593,96.981382 c 0.35761,-0.410316 0.70901,-0.822695 1.05627,-1.241266 -0.34726,0.418571 -0.69866,0.83095 -1.05627,1.241266 z m -1.29915,1.426263 c 0.3607,-0.383434 0.71522,-0.76999 1.06455,-1.16168 -0.34933,0.39169 -0.70385,0.778246 -1.06455,1.16168 z m 2.53732,-2.891816 c 0.36071,-0.437172 0.71004,-0.881592 1.05318,-1.331172 -0.34314,0.44958 -0.69247,0.894 -1.05318,1.331172 z m -3.894347,4.277783 c 0.364837,-0.359675 0.722447,-0.724509 1.073837,-1.095534 -0.35139,0.371025 -0.709,0.735859 -1.073837,1.095534 z m -1.41282,1.341518 c 0.36999,-0.33901 0.73277,-0.68525 1.09244,-1.03457 -0.35967,0.34932 -0.72245,0.69556 -1.09244,1.03457 z m -14.86937,9.6335 c -0.29146,0.12404 -0.58187,0.24392 -0.8754,0.36277 0.29353,-0.11885 0.58394,-0.23873 0.8754,-0.36277 z m 1.83658,-0.83301 c -0.28631,0.13436 -0.57775,0.26665 -0.86818,0.39894 0.29043,-0.13229 0.58187,-0.26458 0.86818,-0.39894 z m 1.80144,-0.90226 c -0.28837,0.1509 -0.57981,0.29351 -0.87024,0.43924 0.29043,-0.14573 0.58187,-0.28834 0.87024,-0.43924 z m 1.76215,-0.96842 c -0.29662,0.16949 -0.59531,0.33073 -0.89193,0.49196 0.29662,-0.16123 0.59531,-0.32247 0.89193,-0.49196 z m 1.71979,-1.02939 c -0.31728,0.19534 -0.64076,0.38653 -0.96324,0.57671 0.32248,-0.19018 0.64596,-0.37827 0.96324,-0.57671 z m 4.48138,-3.14296 c -1.33014,1.03661 -2.71198,2.0102 -4.1403,2.91764 1.42832,-0.90744 2.81016,-1.88103 4.1403,-2.91764 z m 1.45831,-1.17824 c -0.38653,0.3235 -0.77513,0.64595 -1.1689,0.95808 0.39377,-0.31213 0.78237,-0.63458 1.1689,-0.95808 z m 1.46555,-1.27228 c -0.36999,0.33385 -0.74104,0.66458 -1.12138,0.98703 0.38034,-0.32245 0.75139,-0.65318 1.12138,-0.98703 z m 7.884797,-8.855258 c -0.34417,0.483684 -0.69557,0.963242 -1.05524,1.436608 0.35967,-0.473366 0.71107,-0.952924 1.05524,-1.436608 z m -31.392387,14.540708 -0.44442,3.12023 -1.873809,3.96565 c -3.183255,0.59841 -6.460569,0.92398 -9.815406,0.92398 -29.441113,0 -53.3083818,-23.868326 -53.3083818,-53.308383 0,-29.440063 23.8672688,-53.3083727 53.3083818,-53.3083727 29.442115,0 53.307322,23.8683097 53.307322,53.3083727 0,11.424626 -3.60286,22.002792 -9.7255,30.675132 5.92108,-8.395356 9.47745,-18.581814 9.69967,-29.587859 -1.71979,0.703832 -2.67477,1.285709 -2.67477,1.285709 -6.23941,2.523879 -15.301387,0.296624 -15.301387,0.296624 -6.68591,-2.079461 -15.74477,-1.783871 -15.74477,-1.783871 2.07944,0.593246 4.60333,6.68383 4.60333,6.68383 -2.52389,3.266982 -10.09965,3.119189 -10.09965,3.119189 0.59325,3.268017 -8.317839,11.736752 -8.317839,11.736752 0.09199,8.802553 7.881699,19.921267 13.829669,27.146667 -0.86509,0.34105 -1.73842,0.66972 -2.62724,0.96841 -2.38953,-2.56109 -4.8152,-5.24206 -4.8152,-5.24206 z m 2.14042,6.05131 c 0.26459,-0.0734 0.53433,-0.14573 0.79582,-0.2222 -0.26149,0.0796 -0.53123,0.14883 -0.79582,0.2222 z m -2.1301,0.5457 c 0.35451,-0.0827 0.709,-0.16743 1.06039,-0.25424 -0.35139,0.0899 -0.70588,0.17156 -1.06039,0.25424 z m -2.069125,0.44133 c 0.428916,-0.0816 0.854737,-0.16949 1.277435,-0.26149 -0.422698,0.092 -0.848519,0.17984 -1.277435,0.26149 z M 62.491538,2.6894543 c -32.660537,0 -59.1374698,26.4790057 -59.1374698,59.1395427 0,32.659507 26.4769328,59.139533 59.1374698,59.139533 32.662605,0 59.139532,-26.480026 59.139532,-59.139533 0,-32.660537 -26.476927,-59.1395427 -59.139532,-59.1395427 z M 43.877677,49.197212 C 45.361831,41.770273 63.782413,44.890497 63.782413,44.890497 61.406323,41.62248 52.788764,40.138331 52.788764,40.138331 40.310962,38.206667 54.571606,26.025499 54.571606,26.025499 45.806252,27.512745 41.202899,34.64306 41.202899,34.64306 c -7.426934,9.65419 2.674778,14.554152 2.674778,14.554152 z M 63.93021,65.686127 c -1.804538,0 -3.266996,-1.462445 -3.266996,-3.266985 0,-1.807641 1.462458,-3.268017 3.266996,-3.268017 1.804537,0 3.268001,1.460376 3.268001,3.268017 0,1.80454 -1.463464,3.266985 -3.268001,3.266985 z M 44.769614,81.431936 c -1.151361,0 -2.080498,-0.931209 -2.080498,-2.079461 0,-1.148249 0.929137,-2.082559 2.080498,-2.082559 1.148265,0 2.079466,0.93431 2.079466,2.082559 0,1.148252 -0.931201,2.079461 -2.079466,2.079461 z M 73.733233,68.657522 c 3.268,3.415811 9.50637,0.147794 9.50637,0.147794 -4.1589,-0.890902 -8.17004,-8.466667 -8.17004,-8.466667 39.216227,3.120224 16.19232,-28.222566 16.19232,-28.222566 3.86331,24.656893 -22.727315,17.82527 -22.727315,17.82527 -5.94278,-4.90306 -14.407382,-2.823602 -14.407382,-2.823602 -8.468731,-0.147794 -12.477803,14.706079 -12.477803,14.706079 -1.486191,3.563606 -9.805088,12.477792 -9.805088,12.477792 -1.336331,0.446484 -1.187503,1.484146 -1.187503,1.484146 9.209776,22.135097 24.806751,3.862297 24.806751,3.862297 17.677474,5.94279 18.26969,-10.990543 18.26969,-10.990543"
       id="path284"
       style="stroke-width:0.264583" />
  </g>
</svg>
