<?xml version="1.0" encoding="UTF-8" standalone="no"?>
<!-- Created with Inkscape (http://www.inkscape.org/) -->

<svg
   width="124.98514mm"
   height="123.65799mm"
   viewBox="0 0 124.98514 123.65799"
   version="1.1"
   id="svg1"
   inkscape:version="1.4 (86a8ad7, 2024-10-11)"
   sodipodi:docname="pig.svg"
   xmlns:inkscape="http://www.inkscape.org/namespaces/inkscape"
   xmlns:sodipodi="http://sodipodi.sourceforge.net/DTD/sodipodi-0.dtd"
   xmlns="http://www.w3.org/2000/svg"
   xmlns:svg="http://www.w3.org/2000/svg">
  <sodipodi:namedview
     id="namedview1"
     pagecolor="#ffffff"
     bordercolor="#000000"
     borderopacity="0.25"
     inkscape:showpageshadow="2"
     inkscape:pageopacity="0.0"
     inkscape:pagecheckerboard="0"
     inkscape:deskcolor="#d1d1d1"
     inkscape:document-units="mm"
     showgrid="true"
     inkscape:zoom="0.71891835"
     inkscape:cx="395.7334"
     inkscape:cy="337.3123"
     inkscape:window-width="2560"
     inkscape:window-height="1009"
     inkscape:window-x="1912"
     inkscape:window-y="-8"
     inkscape:window-maximized="1"
     inkscape:current-layer="layer1">
    <inkscape:grid
       id="grid1"
       units="mm"
       originx="0"
       originy="0"
       spacingx="0.99999998"
       spacingy="1"
       empcolor="#0099e5"
       empopacity="0.30196078"
       color="#0099e5"
       opacity="0.14901961"
       empspacing="5"
       enabled="true"
       visible="true" />
    <inkscape:grid
       id="grid2"
       units="mm"
       originx="0"
       originy="0"
       spacingx="0.99999998"
       spacingy="1"
       empcolor="#0099e5"
       empopacity="0.30196078"
       color="#0099e5"
       opacity="0.14901961"
       empspacing="5"
       enabled="true"
       visible="true" />
    <inkscape:grid
       id="grid3"
       units="mm"
       originx="0"
       originy="0"
       spacingx="0.99999998"
       spacingy="1"
       empcolor="#0099e5"
       empopacity="0.30196078"
       color="#0099e5"
       opacity="0.14901961"
       empspacing="5"
       enabled="true"
       visible="true" />
    <inkscape:page
       x="0"
       y="0"
       width="124.98515"
       height="123.65799"
       id="page3"
       margin="0 4.7843871 0 0"
       bleed="0" />
  </sodipodi:namedview>
  <defs
     id="defs1" />
  <g
     inkscape:label="Layer 1"
     inkscape:groupmode="layer"
     id="layer1">
    <path
       fill-rule="nonzero"
       fill="#b61d23"
       fill-opacity="1"
       d="m 51.296342,90.266538 c -0.578776,0.205673 -1.155488,0.366903 -1.732174,0.494027 -0.05892,-0.06098 -0.108532,-0.124023 -0.148828,-0.190169 -0.193278,-0.322461 0.177747,-0.674894 1.881002,-0.303858 z m 2.075339,1.631934 c -0.791686,0.595312 -2.521823,1.450049 -6.310736,2.283063 -1.724951,0.38137 -4.000791,0.547767 -4.000791,0.547767 0,0 -5.100452,-0.08681 -6.977353,-0.470244 -1.026292,-0.209815 -6.465755,-2.098067 -4.94956,-5.52731 0.184996,-0.420645 1.214384,-0.460955 2.608632,-0.25735 3.476784,0.511599 9.228376,2.532147 9.866048,3.924321 0.05273,0.108506 0.06099,0.219102 0.05583,0.322448 0.388594,0.06615 0.769964,0.116787 1.148239,0.156051 3.222546,0.34417 6.112298,-0.14261 8.559694,-0.978746 z M 71.635157,66.712419 c -1.43143,1.89756 -3.33312,2.874246 -4.254,2.180746 -0.91882,-0.693496 -0.50332,-2.793626 0.92604,-4.691186 1.42833,-1.896526 3.33314,-2.873209 4.254,-2.179712 0.91882,0.692465 0.50541,2.790529 -0.92604,4.690152 z M 91.918167,48.30631 c 3.14089,-0.405144 3.44474,-1.62264 3.44474,-1.62264 -6.48229,-3.746542 -19.54712,-1.823145 -19.54712,-1.823145 6.68382,-6.177402 4.0504,-19.139916 4.0504,-19.139916 -9.72035,7.088973 -12.45608,22.180557 -12.45608,22.180557 -17.721929,0.910537 -20.354321,22.786205 -20.354321,22.786205 l -8.40568,11.038086 c -1.85002,-0.388607 -5.651341,3.044775 -5.947966,3.317626 -0.01032,0.01035 -0.02688,0.02687 -0.02688,0.02687 0,0 -1.156521,0.330729 -2.02364,0.98185 -0.349329,0.261485 -0.651139,0.57671 -0.81235,0.941546 -0.563271,1.275374 0.303848,4.050398 0.303848,4.050398 2.733675,6.583585 16.063092,4.29949 17.01292,4.151694 0.949801,-0.147797 8.244443,-2.992067 8.244443,-2.992067 39.555206,-5.818773 30.257586,-31.576375 30.257586,-31.576375 10.52238,25.49095 -19.24015,31.247709 -19.24015,31.247709 l 10.03038,0.983906 -11.675772,22.037936 8.202082,-5.11699 2.12908,3.83646 c -4.04212,0.98391 -8.26307,1.52136 -12.612162,1.52136 -29.440054,0 -53.3083553,-23.86833 -53.3083553,-53.308387 0,-29.440063 23.8683013,-53.3083741 53.3083553,-53.3083741 29.443172,0 53.310445,23.8683111 53.310445,53.3083741 0,0.110588 -0.0103,0.219109 -0.0103,0.330729 0,-0.02376 0.003,-0.04754 0.003,-0.07131 C 105.56789,54.274935 91.918087,48.306309 91.918087,48.306309 Z m 14.602723,43.573561 c -0.73588,1.076934 -1.52445,2.111508 -2.3368,3.127455 -3.00241,-3.127455 -3.46027,-7.508579 -3.46027,-7.508579 5.672,-15.594912 12.96149,-12.760975 12.96149,-12.760975 -10.92441,6.728269 -8.67027,14.197581 -7.16442,17.142099 z m -6.13812,7.421775 -1.478993,-1.195785 -2.74402,1.788001 -1.26193,4.251938 c -5.21002,3.99563 -11.17865,7.04349 -17.65372,8.90592 l 10.819,-19.27222 5.66994,-0.303847 8.300243,4.097919 c -0.53432,0.590154 -1.08725,1.161706 -1.65052,1.728074 z m -5.482883,4.838994 c 0.84955,-0.65114 1.67743,-1.33017 2.4846,-2.02883 -0.80717,0.70072 -1.63505,1.37769 -2.4846,2.02883 z m -19.57607,9.42162 c 0.64286,-0.15811 1.28262,-0.3276 1.91823,-0.51054 -0.63561,0.18294 -1.27537,0.35243 -1.91823,0.51054 z M 62.491524,2.6894549 c -32.660536,0 -59.1374693,26.4790051 -59.1374693,59.1395421 0,32.659507 26.4769333,59.139533 59.1374693,59.139533 32.662603,0 59.139566,-26.480026 59.139566,-59.139533 0,-32.660537 -26.476963,-59.1395421 -59.139566,-59.1395421 z M 38.62632,91.393091 c -0.632513,0 -1.14308,0.510567 -1.14308,1.143079 0,0.629418 0.510567,1.139984 1.14308,1.139984 0.629417,0 1.143079,-0.510566 1.143079,-1.139984 0,-0.632512 -0.513662,-1.143079 -1.143079,-1.143079 z m -4.207484,-1.280549 c -0.629417,0 -1.139983,0.510564 -1.139983,1.143072 0,0.629417 0.510566,1.143105 1.139983,1.143105 0.632513,0 1.14308,-0.513688 1.14308,-1.143105 0,-0.632508 -0.510567,-1.143072 -1.14308,-1.143072 z M 65.708911,44.938039 c 0,0 -0.106469,-14.309203 -5.366094,-19.571932 0,0 -9.786461,21.256585 5.366094,19.571932 z m -5.183161,67.791211 7.656377,-17.09973 -9.609743,0.32557 0.487839,1.30429 -7.329779,16.77419 6.188763,-4.0721 2.606543,2.76778"
       id="path286"
       style="stroke-width:0.264583" />
  </g>
</svg>
