<?xml version="1.0" encoding="UTF-8" standalone="no"?>
<!-- Created with Inkscape (http://www.inkscape.org/) -->

<svg
   width="124.98514mm"
   height="123.65799mm"
   viewBox="0 0 124.98514 123.65799"
   version="1.1"
   id="svg1"
   inkscape:version="1.4 (86a8ad7, 2024-10-11)"
   sodipodi:docname="rabbit.svg"
   xmlns:inkscape="http://www.inkscape.org/namespaces/inkscape"
   xmlns:sodipodi="http://sodipodi.sourceforge.net/DTD/sodipodi-0.dtd"
   xmlns="http://www.w3.org/2000/svg"
   xmlns:svg="http://www.w3.org/2000/svg">
  <sodipodi:namedview
     id="namedview1"
     pagecolor="#ffffff"
     bordercolor="#000000"
     borderopacity="0.25"
     inkscape:showpageshadow="2"
     inkscape:pageopacity="0.0"
     inkscape:pagecheckerboard="0"
     inkscape:deskcolor="#d1d1d1"
     inkscape:document-units="mm"
     showgrid="true"
     inkscape:zoom="0.71891835"
     inkscape:cx="395.7334"
     inkscape:cy="337.3123"
     inkscape:window-width="2560"
     inkscape:window-height="1009"
     inkscape:window-x="1912"
     inkscape:window-y="-8"
     inkscape:window-maximized="1"
     inkscape:current-layer="layer1">
    <inkscape:grid
       id="grid1"
       units="mm"
       originx="0"
       originy="0"
       spacingx="0.99999998"
       spacingy="1"
       empcolor="#0099e5"
       empopacity="0.30196078"
       color="#0099e5"
       opacity="0.14901961"
       empspacing="5"
       enabled="true"
       visible="true" />
    <inkscape:grid
       id="grid2"
       units="mm"
       originx="0"
       originy="0"
       spacingx="0.99999998"
       spacingy="1"
       empcolor="#0099e5"
       empopacity="0.30196078"
       color="#0099e5"
       opacity="0.14901961"
       empspacing="5"
       enabled="true"
       visible="true" />
    <inkscape:grid
       id="grid3"
       units="mm"
       originx="0"
       originy="0"
       spacingx="0.99999998"
       spacingy="1"
       empcolor="#0099e5"
       empopacity="0.30196078"
       color="#0099e5"
       opacity="0.14901961"
       empspacing="5"
       enabled="true"
       visible="true" />
    <inkscape:page
       x="0"
       y="0"
       width="124.98515"
       height="123.65799"
       id="page3"
       margin="0 4.7843871 0 0"
       bleed="0" />
  </sodipodi:namedview>
  <defs
     id="defs1" />
  <g
     inkscape:label="Layer 1"
     inkscape:groupmode="layer"
     id="layer1">
    <path
       fill-rule="nonzero"
       fill="#b61d23"
       fill-opacity="1"
       d="m 114.49249,50.122715 c 0.029,0.127132 0.0527,0.256328 0.0816,0.38862 -0.0289,-0.132292 -0.0527,-0.261488 -0.0816,-0.38862 z m -3.29179,33.361286 c 0.61392,-1.375622 1.16997,-2.786407 1.66709,-4.219893 -0.49506,1.436608 -1.05317,2.844271 -1.66709,4.219893 z m -2.32026,4.601262 c 0.79375,-1.400439 1.52342,-2.842207 2.19313,-4.316015 -0.66971,1.476904 -1.39938,2.915576 -2.19313,4.316015 z m -4.27572,6.407891 c -7.686355,-14.772243 5.47666,-26.775648 5.47666,-26.775648 -4.16925,7.669821 -2.80394,15.546361 -1.20094,20.369821 -1.27227,2.243797 -2.70372,4.382157 -4.27572,6.405827 z m -22.489575,9.715156 15.09985,-1.94924 c -4.82865,4.15065 -10.40143,7.46104 -16.50236,9.68108 1.01079,-4.40595 1.40251,-7.73184 1.40251,-7.73184 z m -15.504982,10.75282 c 1.765247,-0.13229 3.503642,-0.35655 5.218272,-0.65627 -1.71463,0.30178 -3.453025,0.52398 -5.218272,0.65627 z m -4.116546,0.17468 c -0.188119,0 -0.373116,-0.0103 -0.561208,-0.0135 2.092881,-5.53972 -1.391126,-7.72047 -1.391126,-7.72047 -3.196722,-2.39675 -8.25791,4.52996 -8.25791,4.52996 -0.463021,0.67696 -0.878496,1.31776 -1.26709,1.94511 C 27.092156,108.62452 9.1852347,87.325565 9.1852347,61.827379 c 0,-29.440055 23.8652053,-53.3083551 53.3083823,-53.3083551 25.320408,0 46.495333,17.6640321 51.932733,41.3359591 -24.270365,-6.463691 -47.228124,14.399128 -47.228124,14.399128 11.984809,18.644843 1.864492,32.760783 1.864492,32.760783 0.511597,4.722206 -0.8754,11.826666 -2.457741,17.946186 -1.357021,0.10647 -2.72542,0.17468 -4.11136,0.17468 z m -9.504336,-0.86506 c 0.06615,0.0103 0.135387,0.0269 0.201533,0.0372 -0.06615,-0.0103 -0.135387,-0.0238 -0.201533,-0.0372 z M 62.493617,2.6909939 c -32.662627,0 -59.1395603,26.4769331 -59.1395603,59.1364381 0,32.662602 26.4769333,59.139558 59.1395603,59.139558 32.660538,0 59.137463,-26.476956 59.137463,-59.139558 0,-32.659505 -26.476925,-59.1364381 -59.137463,-59.1364381 z M 54.876501,60.166563 c 2.923857,-9.573578 7.585075,-16.843428 10.72597,-21.00543 1.947148,-2.577623 3.310387,-3.96359 3.310387,-3.96359 0.39378,3.658685 -0.884713,7.884795 -2.72542,11.845263 -3.495384,7.522025 -9.024778,14.104567 -9.024778,14.104567 z m -4.24471,26.606129 c -1.531673,0 -2.771908,-2.159053 -2.771908,-4.815205 0,-2.659274 1.240235,-4.816263 2.771908,-4.816263 1.532731,0 2.776061,2.156989 2.776061,4.816263 0,2.656152 -1.24333,4.815205 -2.776061,4.815205 z m 9.467135,-22.034844 -0.488871,-1.470713 c 6.905017,-3.788912 11.0195,-9.935315 13.46377,-16.142678 0.66974,-1.698096 1.21235,-3.404447 1.65365,-5.064284 2.25517,-8.473916 1.8552,-15.839863 1.8552,-15.839863 0,-3.024108 -0.98702,-4.426612 -2.12701,-5.035365 -1.56374,-0.838173 -3.42098,-0.184997 -3.42098,-0.184997 -1.03455,0.6935 -2.008135,1.431449 -2.934177,2.201413 -6.125739,5.098415 -10.001461,11.728503 -12.451953,17.983412 -0.515752,1.317757 -0.970492,2.618951 -1.367367,3.887099 -2.662369,8.487331 -2.83083,15.422324 -2.83083,15.422324 L 44.919489,59.67666 c 2.053617,-4.429707 2.971403,-9.368922 3.235987,-14.165527 0.217038,-3.913981 0,-7.728743 -0.39378,-11.093899 -0.80719,-6.929808 -2.352331,-11.951732 -2.352331,-11.951732 -3.751685,-7.83209 -5.873538,-0.651113 -5.873538,-0.651113 -7.345283,13.383154 0.814441,41.291536 0.814441,41.291536 -5.712328,3.100572 -9.789584,10.937822 -9.789584,10.937822 -8.487357,15.665185 0.651113,25.619097 0.651113,25.619097 20.399799,10.774546 32.477604,-3.58738 32.477604,-3.58738 C 77.235855,80.731699 60.098926,64.737848 60.098926,64.737848"
       id="path288"
       style="stroke-width:0.264583" />
  </g>
</svg>
