<?xml version="1.0" encoding="UTF-8" standalone="no"?>
<!-- Created with Inkscape (http://www.inkscape.org/) -->

<svg
   width="124.98514mm"
   height="123.65799mm"
   viewBox="0 0 124.98514 123.65799"
   version="1.1"
   id="svg1"
   inkscape:version="1.4 (86a8ad7, 2024-10-11)"
   sodipodi:docname="rat.svg"
   xmlns:inkscape="http://www.inkscape.org/namespaces/inkscape"
   xmlns:sodipodi="http://sodipodi.sourceforge.net/DTD/sodipodi-0.dtd"
   xmlns="http://www.w3.org/2000/svg"
   xmlns:svg="http://www.w3.org/2000/svg">
  <sodipodi:namedview
     id="namedview1"
     pagecolor="#ffffff"
     bordercolor="#000000"
     borderopacity="0.25"
     inkscape:showpageshadow="2"
     inkscape:pageopacity="0.0"
     inkscape:pagecheckerboard="0"
     inkscape:deskcolor="#d1d1d1"
     inkscape:document-units="mm"
     showgrid="true"
     inkscape:zoom="0.71891835"
     inkscape:cx="395.7334"
     inkscape:cy="337.3123"
     inkscape:window-width="2560"
     inkscape:window-height="1009"
     inkscape:window-x="1912"
     inkscape:window-y="-8"
     inkscape:window-maximized="1"
     inkscape:current-layer="layer1">
    <inkscape:grid
       id="grid1"
       units="mm"
       originx="0"
       originy="0"
       spacingx="0.99999998"
       spacingy="1"
       empcolor="#0099e5"
       empopacity="0.30196078"
       color="#0099e5"
       opacity="0.14901961"
       empspacing="5"
       enabled="true"
       visible="true" />
    <inkscape:grid
       id="grid2"
       units="mm"
       originx="0"
       originy="0"
       spacingx="0.99999998"
       spacingy="1"
       empcolor="#0099e5"
       empopacity="0.30196078"
       color="#0099e5"
       opacity="0.14901961"
       empspacing="5"
       enabled="true"
       visible="true" />
    <inkscape:grid
       id="grid3"
       units="mm"
       originx="0"
       originy="0"
       spacingx="0.99999998"
       spacingy="1"
       empcolor="#0099e5"
       empopacity="0.30196078"
       color="#0099e5"
       opacity="0.14901961"
       empspacing="5"
       enabled="true"
       visible="true" />
    <inkscape:page
       x="0"
       y="0"
       width="124.98515"
       height="123.65799"
       id="page3"
       margin="0 4.7843871 0 0"
       bleed="0" />
  </sodipodi:namedview>
  <defs
     id="defs1" />
  <g
     inkscape:label="Layer 1"
     inkscape:groupmode="layer"
     id="layer1">
    <path
       fill-rule="nonzero"
       fill="#b61d23"
       fill-opacity="1"
       d="m 113.53235,77.232189 c -2.76262,-2.355427 -4.48241,-9.234594 -4.48241,-9.234594 1.10588,-5.822897 3.58841,-9.297617 6.49883,-11.319192 0.16123,1.696005 0.2532,3.410638 0.2532,5.14903 0,0.815472 -0.0289,1.621604 -0.0682,2.423636 0.0289,-0.637699 0.0476,-1.277435 0.0527,-1.923415 -1.23611,2.738861 -1.19579,5.18832 -1.19579,5.18832 0.1106,1.11932 0.27491,2.143549 0.47853,3.090254 -0.37518,2.260336 -0.88884,4.472093 -1.53686,6.625961 z M 71.33337,71.593256 c -1.409726,1.444863 -3.180159,2.000912 -3.955309,1.24333 -0.772054,-0.756549 -0.259424,-2.539391 1.151334,-3.981159 1.40769,-1.444863 3.180186,-2.000911 3.955336,-1.241266 0.772028,0.75655 0.256302,2.537328 -1.151361,3.979095 z m -8.841846,43.542554 c -29.440054,0 -53.3083553,-23.8652 -53.3083553,-53.308377 0,-29.440055 23.8683013,-53.3083551 53.3083553,-53.3083551 20.746033,0 38.703596,11.8617991 47.513406,29.1599661 C 88.999467,37.046532 68.573845,50.40799 68.573845,50.40799 c -7.710117,-0.237729 -10.120312,4.336679 -10.120312,4.336679 -5.29889,-0.478525 -4.574408,5.545905 -4.574408,5.545905 -12.530481,13.009033 -10.601933,31.0751 -10.601933,31.0751 31.329365,-2.408105 44.090355,-18.547688 44.090355,-18.547688 v -7.444502 c -0.98394,0.312129 -2.03192,0.483685 -3.1192,0.483685 -5.662695,0 -10.252607,-4.587849 -10.252607,-10.249508 0,-5.662692 4.589912,-10.250541 10.252607,-10.250541 5.65959,0 10.2526,4.587849 10.2526,10.250541 0,3.034453 -1.32807,5.754687 -3.42408,7.630556 0.75965,13.871999 -9.492957,28.851966 -9.492957,28.851966 -5.059124,7.710143 3.855057,4.098978 3.855057,4.098978 6.26526,-2.654089 12.76821,-16.629459 12.76821,-16.629459 4.871033,0.564303 12.065423,-0.766895 15.031643,-1.385967 -6.90292,21.44469 -27.009193,36.962075 -50.747296,36.962075 z M 111.05807,39.853575 c -0.30384,-0.666617 -0.62113,-1.328076 -0.95186,-1.978157 0.33073,0.650081 0.64802,1.31154 0.95186,1.978157 z M 62.491524,2.6909949 c -32.660536,0 -59.1374693,26.4769331 -59.1374693,59.1364381 0,32.6626 26.4769333,59.139557 59.1374693,59.139557 32.662603,0 59.139566,-26.476957 59.139566,-59.139557 0,-32.659505 -26.476963,-59.1364381 -59.139566,-59.1364381 z M 51.397625,94.52001 c 4.433861,7.85482 5.322676,6.07923 5.322676,6.07923 C 56.594227,99.842686 51.7759,92.744418 51.7759,92.744418 50.510874,91.982709 51.397625,94.52001 51.397625,94.52001 Z M 32.072723,80.465053 c 0,0 -1.709473,1.007692 6.441969,4.884473 0,0 2.590033,0.703818 1.743578,-0.505407 0,0 -7.418679,-4.307734 -8.185547,-4.379066 z m 3.010667,-6.540156 c 0,0 -1.960615,0.298688 4.148587,6.939095 0,0 2.137331,1.622663 1.804538,0.182933 0,0 -5.267907,-6.767539 -5.953125,-7.122028 z m 37.859176,13.368681 -5.19348,5.45084 c -3.296946,2.915576 -1.397317,5.071533 -1.397317,5.071533 1.775592,2.026735 4.691168,0.125042 4.691168,0.125042 7.854818,-7.350442 7.730807,-12.925319 7.730807,-12.925319 z m -17.235117,6.590824 c 4.434867,7.857908 5.323708,6.083353 5.323708,6.083353 -0.127132,-0.759646 -4.945433,-7.85585 -4.945433,-7.85585 -1.267116,-0.761709 -0.378275,1.772497 -0.378275,1.772497 z M 67.923764,48.44531 v -1.566836 c 0,0 4.026615,-9.397867 -6.493668,-6.71277 0,0 -8.056351,1.563741 -2.907321,11.858704 0,0 3.356901,-4.698417 9.400989,-3.579098 z m 22.981553,7.162351 c 0,-3.678317 -2.98175,-6.656944 -6.65697,-6.656944 -3.67832,0 -6.656972,2.978627 -6.656972,6.656944 0,3.674189 2.978652,6.656969 6.656972,6.656969 3.67522,0 6.65697,-2.98278 6.65697,-6.656969"
       id="path289"
       style="stroke-width:0.264583" />
  </g>
</svg>
