<?xml version="1.0" encoding="UTF-8" standalone="no"?>
<!-- Created with Inkscape (http://www.inkscape.org/) -->

<svg
   width="124.98514mm"
   height="123.65799mm"
   viewBox="0 0 124.98514 123.65799"
   version="1.1"
   id="svg1"
   inkscape:version="1.4 (86a8ad7, 2024-10-11)"
   sodipodi:docname="rooster.svg"
   xmlns:inkscape="http://www.inkscape.org/namespaces/inkscape"
   xmlns:sodipodi="http://sodipodi.sourceforge.net/DTD/sodipodi-0.dtd"
   xmlns="http://www.w3.org/2000/svg"
   xmlns:svg="http://www.w3.org/2000/svg">
  <sodipodi:namedview
     id="namedview1"
     pagecolor="#ffffff"
     bordercolor="#000000"
     borderopacity="0.25"
     inkscape:showpageshadow="2"
     inkscape:pageopacity="0.0"
     inkscape:pagecheckerboard="0"
     inkscape:deskcolor="#d1d1d1"
     inkscape:document-units="mm"
     showgrid="true"
     inkscape:zoom="0.71891835"
     inkscape:cx="395.7334"
     inkscape:cy="337.3123"
     inkscape:window-width="2560"
     inkscape:window-height="1009"
     inkscape:window-x="1912"
     inkscape:window-y="-8"
     inkscape:window-maximized="1"
     inkscape:current-layer="layer1">
    <inkscape:grid
       id="grid1"
       units="mm"
       originx="0"
       originy="0"
       spacingx="0.99999998"
       spacingy="1"
       empcolor="#0099e5"
       empopacity="0.30196078"
       color="#0099e5"
       opacity="0.14901961"
       empspacing="5"
       enabled="true"
       visible="true" />
    <inkscape:grid
       id="grid2"
       units="mm"
       originx="0"
       originy="0"
       spacingx="0.99999998"
       spacingy="1"
       empcolor="#0099e5"
       empopacity="0.30196078"
       color="#0099e5"
       opacity="0.14901961"
       empspacing="5"
       enabled="true"
       visible="true" />
    <inkscape:grid
       id="grid3"
       units="mm"
       originx="0"
       originy="0"
       spacingx="0.99999998"
       spacingy="1"
       empcolor="#0099e5"
       empopacity="0.30196078"
       color="#0099e5"
       opacity="0.14901961"
       empspacing="5"
       enabled="true"
       visible="true" />
    <inkscape:page
       x="0"
       y="0"
       width="124.98515"
       height="123.65799"
       id="page3"
       margin="0 4.7843871 0 0"
       bleed="0" />
  </sodipodi:namedview>
  <defs
     id="defs1" />
  <g
     inkscape:label="Layer 1"
     inkscape:groupmode="layer"
     id="layer1">
    <path
       fill-rule="nonzero"
       fill="#b61d23"
       fill-opacity="1"
       d="M 111.92004,70.209354 C 98.534803,63.949286 96.653793,81.250548 96.653793,81.250548 c -2.0929,-8.648567 2.71714,-14.078743 2.71714,-14.078743 5.953127,-6.926686 11.856637,-6.01099 16.373157,-3.211169 -0.11163,2.864935 -0.44236,5.672005 -0.99012,8.402585 -1.60817,-1.446927 -2.83393,-2.153867 -2.83393,-2.153867 z m -0.2191,12.141887 c 1.32807,-3.185318 2.35746,-6.526715 3.05303,-9.984898 -0.6935,3.460247 -1.72496,6.79958 -3.05303,9.984898 z M 54.942633,47.103794 c -1.59266,0.748268 -3.40236,0.500221 -4.04006,-0.556048 -0.64079,-1.055238 0.1323,-2.513542 1.72186,-3.264906 1.59059,-0.746204 3.40032,-0.497125 4.03799,0.558113 0.64286,1.058333 -0.13023,2.516637 -1.71979,3.262841 z M 109.72172,86.54531 c -0.84955,-0.503316 -1.78284,-0.939482 -2.82876,-1.268147 0,0 -2.60348,-1.142048 -6.20427,2.026761 l -1.301217,0.529166 -0.79891,5.459095 c 0,0 2.496997,-0.703844 4.598167,-0.619072 0.57359,0.02593 1.33117,0.269743 2.21485,0.764805 -1.67537,2.274782 -3.53571,4.404889 -5.545927,6.381009 C 95.371173,84.018328 76.646743,81.09447 76.646743,81.09447 l -1.54307,-2.476314 -6.50296,-11.446351 c 0,0 2.07947,-34.794772 -18.46813,-32.272949 0,0 -10.14716,1.827266 -8.58551,11.903154 0,0 -7.54372,4.577477 -6.76342,10.527507 0,0 7.28433,-7.096205 15.60836,-0.685218 0,0 4.16202,2.289254 1.82004,16.253274 0,0 -17.16588,24.26208 3.64008,37.769267 0,0 -1.55752,-9.61493 0.78137,-11.445289 0,0 0.26146,3.661779 7.54579,4.119639 0,0 -8.47702,-15.333448 8.17829,-23.52725 l 0.59741,0.743109 0.74101,5.191416 c -2.15386,15.372685 4.81524,21.651385 11.84011,24.161825 -1.81176,0.86815 -3.68557,1.62161 -5.6038,2.28616 0.8041,-0.27802 1.59785,-0.57152 2.38125,-0.88365 -15.70548,-6.76548 -11.81632,-27.294472 -11.81632,-27.294472 -9.71309,6.058561 -3.19878,22.293212 -3.19878,22.293212 l -8.97411,-0.86506 c -1.23095,2.27066 0.49196,7.46726 0.49196,7.46726 1.30948,0.81751 2.57969,1.54718 3.81784,2.22001 -0.0475,0 -0.0951,0.003 -0.14262,0.003 -29.44111,0 -53.3083768,-23.865204 -53.3083768,-53.308381 0,-29.440055 23.8672668,-53.3083551 53.3083768,-53.3083551 25.49197,0 46.780607,17.9017351 52.040237,41.8124211 -12.70206,-7.458974 -22.050347,11.877305 -22.050347,11.877305 -7.60158,15.1443 0.71935,21.711337 0.71935,21.711337 0.97978,1.590596 0.87127,4.70154 0.87127,4.70154 0.894,0.556022 3.59254,3.939805 3.59254,3.939805 l 0.55602,-4.686036 0.62632,-4.233333 c 4.551677,-4.650872 9.051667,-3.902604 12.845737,-1.272275 -0.59532,1.426289 -1.25884,2.815351 -1.97094,4.175469 z M 97.738983,101.8033 c 0.61391,-0.53641 1.20407,-1.09556 1.788,-1.66089 -0.58393,0.56533 -1.17718,1.12138 -1.788,1.66089 z m -2.20967,1.84174 c 0.7307,-0.57981 1.44487,-1.17203 2.14353,-1.78284 -0.69866,0.61288 -1.41283,1.20303 -2.14353,1.78284 z m -8.5535,-4.693258 c 2.3885,-0.156052 5.70405,2.240698 8.48529,4.745958 -0.62219,0.48991 -1.25161,0.96843 -1.89446,1.43145 -3.07166,-3.18534 -6.59083,-6.177408 -6.59083,-6.177408 z m -8.17623,13.048298 c 0.30178,0.10128 0.63045,0.18293 0.97668,0.2522 -0.0558,0.0185 -0.11369,0.0393 -0.16949,0.0579 -0.31213,-0.11679 -0.58706,-0.2222 -0.80719,-0.31007 z m -7.08277,2.32338 c 2.70473,-0.47336 5.33922,-1.14514 7.88996,-2.01022 -2.55074,0.86508 -5.18523,1.53892 -7.88996,2.01022 z M 114.90798,52.154637 c -0.0558,-0.296624 -0.11991,-0.593249 -0.17777,-0.888815 0.0579,0.295566 0.12194,0.592191 0.17777,0.888815 z M 62.491533,2.6909949 c -32.66053,0 -59.1374648,26.4769331 -59.1374648,59.1364381 0,32.662601 26.4769348,59.139557 59.1374648,59.139557 32.66261,0 59.139537,-26.476956 59.139537,-59.139557 0,-32.659505 -26.476927,-59.1364381 -59.139537,-59.1364381 z M 39.917213,24.230777 c 0,0 -3.50367,-0.667676 -3.03239,0.581872 l 1.04179,3.166718 c 0,0 -7.57679,-1.248489 -11.08046,4.251934 0,0 -1.89444,1.918229 0,1.751832 0,0 7.29258,1.248516 8.33438,2.164213 0,0 -7.57783,4.084505 -9.75548,8.500771 0,0 -1.51514,4.836927 0.85267,4.421452 0,0 1.03974,0.332793 1.79938,-1.418008 0,0 3.6008,-3.916045 7.38661,-4.003887 l 0.56949,-1.333261 2.4629,0.254264 c 0,0 1.98954,-7.337028 11.46183,-9.41959 0,0 -3.41064,-9.6697 -10.04072,-8.91831 z m -4.83487,49.831571 c 5.16559,1.08212 10.33013,-7.684293 10.33013,-7.684293 -4.18063,8.657881 1.35393,7.467256 1.35393,7.467256 4.91648,-4.543399 1.59887,-14.824948 1.59887,-14.824948 -0.61394,-3.677285 -4.18063,0.111628 -4.18063,0.111628 -14.38568,12.225628 -9.1023,14.930357 -9.1023,14.930357"
       id="path290"
       style="stroke-width:0.264583" />
  </g>
</svg>
