<?xml version="1.0" encoding="UTF-8" standalone="no"?>
<!-- Created with Inkscape (http://www.inkscape.org/) -->

<svg
   width="124.98514mm"
   height="123.65799mm"
   viewBox="0 0 124.98514 123.65799"
   version="1.1"
   id="svg1"
   inkscape:version="1.4 (86a8ad7, 2024-10-11)"
   sodipodi:docname="tiger.svg"
   xmlns:inkscape="http://www.inkscape.org/namespaces/inkscape"
   xmlns:sodipodi="http://sodipodi.sourceforge.net/DTD/sodipodi-0.dtd"
   xmlns="http://www.w3.org/2000/svg"
   xmlns:svg="http://www.w3.org/2000/svg">
  <sodipodi:namedview
     id="namedview1"
     pagecolor="#ffffff"
     bordercolor="#000000"
     borderopacity="0.25"
     inkscape:showpageshadow="2"
     inkscape:pageopacity="0.0"
     inkscape:pagecheckerboard="0"
     inkscape:deskcolor="#d1d1d1"
     inkscape:document-units="mm"
     showgrid="true"
     inkscape:zoom="0.71891835"
     inkscape:cx="395.7334"
     inkscape:cy="337.3123"
     inkscape:window-width="2560"
     inkscape:window-height="1009"
     inkscape:window-x="1912"
     inkscape:window-y="-8"
     inkscape:window-maximized="1"
     inkscape:current-layer="layer1">
    <inkscape:grid
       id="grid1"
       units="mm"
       originx="0"
       originy="0"
       spacingx="0.99999998"
       spacingy="1"
       empcolor="#0099e5"
       empopacity="0.30196078"
       color="#0099e5"
       opacity="0.14901961"
       empspacing="5"
       enabled="true"
       visible="true" />
    <inkscape:grid
       id="grid2"
       units="mm"
       originx="0"
       originy="0"
       spacingx="0.99999998"
       spacingy="1"
       empcolor="#0099e5"
       empopacity="0.30196078"
       color="#0099e5"
       opacity="0.14901961"
       empspacing="5"
       enabled="true"
       visible="true" />
    <inkscape:grid
       id="grid3"
       units="mm"
       originx="0"
       originy="0"
       spacingx="0.99999998"
       spacingy="1"
       empcolor="#0099e5"
       empopacity="0.30196078"
       color="#0099e5"
       opacity="0.14901961"
       empspacing="5"
       enabled="true"
       visible="true" />
    <inkscape:page
       x="0"
       y="0"
       width="124.98515"
       height="123.65799"
       id="page3"
       margin="0 4.7843871 0 0"
       bleed="0" />
  </sodipodi:namedview>
  <defs
     id="defs1" />
  <g
     inkscape:label="Layer 1"
     inkscape:groupmode="layer"
     id="layer1">
    <path
       fill-rule="nonzero"
       fill="#b61d23"
       fill-opacity="1"
       d="m 84.824026,37.213441 c 0,0 7.21815,-6.47919 9.72138,-3.093349 0,0 2.26446,3.169832 -6.14434,9.557038 z m -6.4027,10.133748 c 2.47115,16.994312 -14.14696,12.057147 -14.14696,12.057147 12.72379,-1.899626 14.14696,-12.057147 14.14696,-12.057147 z m -15.28797,5.410523 c 0,0 7.59645,0.854729 10.35079,-5.600692 0,0 1.3281,5.315439 -6.93187,8.071861 0,0 -3.70107,-0.666626 -3.41892,-2.471169 z m 7.78764,-7.688419 c 0,1.362192 -1.40251,2.468066 -3.13262,2.468066 -1.73116,0 -3.13367,-1.105874 -3.13367,-2.468066 0,-1.365292 1.40251,-2.471165 3.13367,-2.471165 1.73011,0 3.13262,1.105873 3.13262,2.471165 z M 59.048846,30.548217 c 3.50573,-4.820378 11.97758,-2.920754 11.97758,-2.920754 3.11195,0.396875 1.02111,0.730705 1.02111,0.730705 -4.0876,0.293524 -7.30186,3.360002 -7.30186,3.360002 -5.11496,1.460376 -5.69683,-1.169953 -5.69683,-1.169953 z m -6.165,16.100308 1.22785,-4.206462 0.9126,-8.771556 3.01892,3.641121 c 0,0 1.15861,1.158584 2.2438,0.463021 0,0 11.37399,-5.416724 14.15728,-2.09083 l -14.38982,7.11998 -3.13883,1.03973 z m -5.78361,-2.69131 c 0.44958,-0.721402 1.36012,-2.330606 1.65881,-2.401919 0.17984,-0.04548 0.49712,-0.108521 0.66662,-0.06304 0.90537,0.256315 1.30225,1.472777 1.25989,2.351278 -0.0538,1.042829 -1.04802,1.841746 -2.22314,1.783869 -0.64492,-0.0341 -1.21129,-0.315225 -1.58234,-0.735873 -0.30075,-0.346231 -0.0206,-0.544668 0.22016,-0.93431 z m 7.68117,12.028207 c 0,0 -1.80453,5.318538 -7.59642,2.281 0,0 -5.03537,-1.807644 -3.89538,-5.698879 0,0 9.40099,-0.188101 11.4918,3.417879 z m 21.91494,57.216148 c -0.49194,-5.12424 -0.67487,-8.88421 -0.67487,-8.88421 -0.6563,1.75079 -5.88389,6.98251 -9.7255,10.66808 -0.96843,0.0682 -1.94202,0.11059 -2.92696,0.12919 6.26835,-4.69842 13.51029,-13.47205 17.61339,-29.802831 0.37828,-1.509988 -8.73125,9.0072 -18.92289,9.451618 -1.45727,0.06304 20.51349,-17.092496 20.74913,-18.627286 0.61081,-4.040063 1.05008,-8.439795 1.27743,-13.244671 0,0 -0.23564,-1.86862 2.10325,-4.440039 0,0 5.14075,-3.741372 3.73931,-11.686106 l 0.4227,-0.995288 c 8.98032,-8.159711 6.50917,-13.514422 6.50917,-13.514422 -3.3786,-9.723437 -11.70059,-3.627686 -11.70059,-3.627686 -2.30682,2.060858 -4.0318,0.944647 -4.0318,0.944647 0,0 -14.92001,-8.54315 -27.33164,1.592667 0,0 -3.98735,4.214731 -5.12424,7.289477 0,0 -5.69476,9.109522 -7.17579,10.249503 l -2.50323,3.074747 c 0,0 -1.82313,6.717938 2.16215,10.363192 0,0 10.70428,14.23479 35.30328,2.733683 l 1.48106,0.912606 c 0,0 -9.95082,10.617441 -34.79478,6.709669 -0.92916,-0.145727 0.30385,16.502351 13.43483,23.23579 1.202,0.617017 0.95292,1.878955 0.75136,1.836582 -23.92825,-5.466334 -19.97604,-26.188583 -21.19042,-26.482106 -1.56062,-0.38137 -3.10576,-1.386993 -4.83899,-1.307412 -5.59861,0.251148 -8.12766,14.869377 -9.38959,26.595792 -1.77355,-2.079461 -3.39206,-4.291211 -4.83177,-6.630088 0.92089,-6.251813 3.57706,-13.549558 9.4506,-21.42608 0.33383,-0.447519 -1.12654,-0.36277 -1.77768,-0.57981 -1.52342,-0.507463 -3.40754,-1.004591 -5.59861,-1.409735 -0.57362,-0.106452 -4.75218,4.786273 -8.29408,8.802566 -0.41857,-1.624708 -0.7493,-3.283521 -1.0087203,-4.964038 0.0744,0.486791 0.1560803,0.971515 0.2459803,1.455208 2.04846,-3.195672 3.96875,-6.000668 3.59566,-6.029608 -1.36736,-0.121954 -2.87321,-0.471289 -4.4100703,-0.656288 -0.061,-1.029396 -0.0982,-2.066026 -0.0982,-3.110924 0,-29.440062 23.8652003,-53.3083731 53.3083803,-53.3083731 29.44006,0 53.305264,23.8683111 53.305264,53.3083731 0,24.521501 -16.560224,45.153831 -39.102534,51.373611 z m -2.52696,0.63769 c 0.79685,-0.17984 1.5875,-0.38034 2.374,-0.59222 -0.7865,0.21188 -1.57715,0.41238 -2.374,0.59222 z m -3.88091,0.71416 c 0.57878,-0.0847 1.15549,-0.1819 1.73324,-0.28525 -0.57775,0.10335 -1.15446,0.2005 -1.73324,0.28525 z m -1.85208,0.23565 c 0.61391,-0.0682 1.22783,-0.14263 1.83348,-0.23255 -0.60565,0.0899 -1.21957,0.16433 -1.83348,0.23255 z m -2.07946,0.1912 c 0.58912,-0.0424 1.17718,-0.0961 1.76217,-0.15606 -0.58499,0.06 -1.17305,0.11369 -1.76217,0.15606 z m 6.06681,-0.78652 c 0.58187,-0.11058 1.16065,-0.22427 1.7353,-0.35449 -0.57465,0.13022 -1.15343,0.24391 -1.7353,0.35449 z m -43.17256,-10.71252 c 0.29869,-5.362979 1.16686,-10.485148 3.31041,-12.66279 0.33073,-0.333831 0.0238,7.408333 -0.0899,15.05954 -1.10898,-0.75654 -2.17765,-1.56062 -3.22048,-2.39675 z m -1.65365,-1.38183 c 0.51057,0.44235 1.02629,0.8816 1.5534,1.30535 -0.52711,-0.42685 -1.04283,-0.8599 -1.5534,-1.30535 z m -2.18487,-1.99161 c 0.58912,0.57155 1.19268,1.12965 1.80972,1.67225 -0.61704,-0.5457 -1.2206,-1.1007 -1.80972,-1.67225 z M 62.493616,2.6904869 c -32.66263,0 -59.1395603,26.4769361 -59.1395603,59.1374721 0,32.662606 26.4769303,59.139541 59.1395603,59.139541 32.66054,0 59.137474,-26.476935 59.137474,-59.139541 0,-32.660536 -26.476934,-59.1374721 -59.137474,-59.1374721 z M 47.644906,22.624153 c 0,0 -4.10104,5.360913 1.70636,11.509374 l 2.02467,-3.235978 7.953,-5.256527 c 0,0 -5.98723,-8.027416 -11.68403,-3.016869"
       id="path281"
       style="stroke-width:0.264583" />
  </g>
</svg>
